<svg width="100%" height="100%" viewBox="0 0 744 680" fill="none" xmlns="http://www.w3.org/2000/svg">
<path d="M89.3292 665.086C86.7564 664.938 85.856 664.079 86.3977 662.29C87.007 660.573 87.5283 658.932 89.1735 657.628C90.25 656.789 91.0828 656.137 92.4775 656.233C93.7029 656.317 94.2243 655.672 94.2107 654.535C94.1972 652.869 94.495 651.171 92.7754 649.925C91.8004 649.227 92.5519 647.807 91.7598 646.941C91.5432 646.844 91.2656 646.612 91.1099 646.67C87.2033 648.097 83.1411 647.148 79.16 647.393C78.3137 647.445 77.5284 647.458 77.1289 648.33C76.3842 649.234 75.7613 650.28 74.8608 651.009C73.7573 651.901 74.5155 653.082 74.0416 654.038C74.028 654.051 74.3936 654.303 74.6035 654.348C74.9149 654.406 75.3077 654.361 75.3415 653.98C75.3753 653.528 75.1384 653.031 75.2535 652.611C75.5514 651.526 76.0321 650.635 77.5284 650.635C79.0788 650.635 79.5053 651.481 79.5527 652.682C79.5798 653.483 79.6408 654.167 80.4735 654.664C81.1912 655.09 81.1912 655.923 80.961 656.569C80.548 657.719 80.4464 658.991 79.573 659.966C79.6069 660.883 79.3835 661.696 78.5981 662.29C78.4289 662.658 78.1986 663.02 77.7924 663.104C75.6732 663.537 76.0727 664.86 76.3503 666.203C77.0883 666.326 77.2778 665.861 77.332 665.558C77.6299 663.866 78.7605 663.608 80.3245 663.666C83.0191 663.763 83.0869 663.776 82.3422 666.481H89.3292C89.4917 666.326 89.6474 666.165 89.8099 666.01C89.8099 665.629 89.7489 665.274 89.3292 665.086ZM100.257 666.41C101.523 665.7 102.951 666.113 104.305 666.023C104.806 665.997 105.497 666.081 105.599 666.488C106.14 668.58 108.889 668.011 109.783 669.761C110.121 670.426 111.326 670.607 111.692 669.574C112.159 668.257 113.154 668.334 114.217 668.341C115.104 667.269 113.784 666.985 113.493 666.32C113.046 665.306 112.802 665.073 111.658 665.738C110.189 666.584 109.207 665.073 108.855 664.247C107.731 661.625 105.03 662.452 103.168 661.528C102.599 661.251 102.213 661.993 101.712 662.213C100.852 662.594 100.202 663.446 99.0921 663.227C98.7807 663.963 97.7516 664.447 98.3203 665.48C98.7469 666.268 99.0448 667.088 100.257 666.41ZM170.331 655.31C169.924 655.245 169.782 655.4 169.735 655.542C169.816 655.375 169.965 655.252 170.331 655.31ZM45.0845 401.351C44.2449 402.488 43.0669 403.502 44.4413 404.942C45.7413 405.794 46.4385 405.213 46.8786 404.012C46.398 403.075 45.247 402.565 45.0845 401.351ZM719.189 364.203C719.04 362.724 717.374 362.065 716.054 362.937C715.011 363.634 714.212 363.647 713.204 363.085C712.1 362.478 710.177 361.917 709.798 362.646C709.101 363.964 711.193 364.106 711.938 364.906C712.093 365.074 712.276 365.229 712.445 365.391C715.925 366.902 718.647 369.652 722.438 370.757C724.036 371.228 725.533 372.403 726.772 373.669C727.164 374.069 727.746 374.515 728.227 373.985C728.762 373.391 728.031 372.959 727.618 372.72C726.094 371.848 724.998 370.744 724.531 369.026C724.307 368.219 723.501 367.657 722.696 367.244C720.834 366.96 719.405 366.385 719.189 364.203ZM677.659 596.633C678.492 597.162 679.27 598.189 679.27 598.964C679.223 599.409 679.372 599.952 678.905 600.216C679.372 599.952 679.223 599.409 679.277 598.964C679.27 598.189 678.492 597.162 677.659 596.633ZM49.8035 551.535C50.5618 550.921 50.8326 550.347 50.6227 549.901C50.7243 550.192 50.467 550.476 49.7967 550.579C49.7831 550.405 49.7561 550.269 49.7155 550.179C49.7561 550.295 49.7831 550.431 49.7899 550.579H49.7967C49.7967 550.663 49.7966 550.754 49.7899 550.857C49.7763 551.135 50.0947 551.664 49.3296 551.541C49.2484 551.528 49.1603 551.522 49.0791 551.522C48.6932 552.426 48.1312 552.923 48.3411 553.866C48.0703 552.652 49.0859 552.181 49.8035 551.535ZM111.225 646.954C112.173 646.928 112.619 647.432 112.884 648.058C112.619 647.426 112.166 646.928 111.225 646.954C110.615 646.974 110.006 647.348 109.552 647.865C110.006 647.348 110.622 646.974 111.225 646.954ZM106.675 651.526C107.291 651.449 107.393 651.022 107.352 650.545C107.393 651.016 107.291 651.449 106.675 651.526ZM51.5232 501.329L51.5164 501.304C51.4893 501.31 51.4555 501.297 51.4216 501.297C51.4555 501.297 51.4894 501.317 51.5232 501.329ZM50.7717 500.245C50.7175 500.232 50.6768 500.212 50.6362 500.187C50.5346 500.154 50.6024 500.225 50.7987 500.264L50.7717 500.245ZM51.0018 500.283H51.1305C51.0831 500.283 51.0424 500.283 50.9951 500.277L51.0018 500.283ZM94.1565 74.393C94.1903 73.8376 93.7029 73.6375 93.1613 73.6052C91.4551 73.5083 89.7693 73.5471 88.2459 74.4317C88.0361 74.5479 87.8668 74.7223 87.6569 74.8385C83.8383 76.9048 83.791 77.034 85.206 81.0698C85.3076 81.3604 85.3821 81.6574 85.4904 82.1159L85.4972 82.1223C86.5872 81.0633 87.3997 80.353 88.9163 81.1989C89.7084 81.6445 91.0557 81.3733 91.665 80.4693C92.3082 79.52 92.7144 79.3005 93.2628 80.4305C93.5201 80.9665 93.9128 81.0892 94.4206 80.8761C95.0164 80.6242 95.3346 80.0754 95.1383 79.5459C94.4883 77.8734 94.0482 76.1945 94.1565 74.393ZM80.1756 84.0208C80.2908 83.9497 80.4193 83.8852 80.5547 83.8335C80.4261 83.8852 80.2908 83.9497 80.1756 84.0208ZM26.845 452.209C27.3934 452.441 27.9486 451.854 27.9553 451.395C27.9689 450.737 27.258 451.143 26.8788 451.021C26.9939 451.44 26.3778 452.015 26.845 452.209ZM205.022 650.816C205.164 650.68 205.266 650.454 205.3 650.105C205.266 650.441 205.171 650.661 205.022 650.816ZM206.173 650.57C206.6 649.912 206.214 649.453 204.975 649.266C204.975 649.111 204.975 648.956 204.968 648.807C204.975 648.898 204.975 648.995 204.731 649.318C205.049 649.376 205.279 649.544 205.293 649.95C206.214 649.86 206.444 650.125 206.173 650.57ZM56.1 647.871C54.4751 647.936 53.1887 648.775 52.5725 649.983C53.1887 648.775 54.4751 647.942 56.1 647.871ZM148.868 655.775C148.51 655.019 147.92 654.8 147.237 654.871C147.751 654.832 148.008 655.045 147.386 655.794C146.966 655.801 146.627 655.801 146.546 655.872C146.817 655.827 147.101 655.807 147.386 655.794C147.507 655.794 147.629 655.788 147.765 655.781C147.887 655.775 148.008 655.768 148.13 655.756C149.126 655.652 148.855 656.246 148.848 656.705C148.848 656.782 148.835 656.853 148.828 656.924C149.796 657.551 149.085 658.209 148.313 658.752C149.369 658.009 150.331 657.047 148.868 655.775ZM5.3895 505.456C6.71653 504.397 5.32857 503.867 4.90202 503.144C4.19112 503.221 3.56825 502.989 2.96566 502.673C2.16 502.221 0.995461 502.072 1.04284 500.852C1.09022 499.58 2.26831 499.599 3.14843 499.308C4.43483 498.889 5.22019 497.862 6.19515 497.055C7.08882 496.312 7.34615 495.731 6.28998 494.859C5.11189 493.897 4.65151 492.709 5.24055 491.121C5.62646 490.087 5.53844 488.938 4.80045 487.808C2.96566 485.005 5.32176 480.02 8.80177 479.465C10.5756 479.175 11.5235 478.251 12.1938 476.889C12.4443 476.372 12.6406 475.907 13.2093 475.675C13.2567 475.145 12.9182 474.738 12.7219 474.286C11.6115 473.77 11.0631 472.833 10.7923 471.768C10.5215 470.69 9.87829 470.005 8.82213 469.631C7.0889 468.617 7.00761 468.158 8.32784 466.835C8.49033 466.68 8.6529 466.525 8.82213 466.37C9.53302 464.639 11.0969 465.769 12.2344 465.446C12.7219 465.44 13.2094 465.44 13.6968 465.433C13.7984 464.839 15.1796 464.381 13.7645 463.625C11.7808 462.553 11.686 461.604 13.3109 460.209C14.3604 459.305 15.8024 458.769 15.9581 457.136C15.9852 456.806 16.6216 456.477 16.9533 456.677C18.4158 457.588 19.7834 457.045 21.2052 456.619C21.652 456.49 22.1801 456.58 22.478 457.065C22.9587 457.342 22.9317 457.801 22.979 458.253C23.2769 461.191 23.8592 461.559 26.8653 460.784C27.0481 460.261 27.7115 459.661 26.5674 459.376C25.7211 459.163 24.9221 458.602 25.0102 457.82C25.2471 455.767 23.9743 455.76 22.4035 455.534C19.7766 455.147 18.9777 454.424 19.1064 452.68C19.2622 450.595 18.5715 448.967 17.1227 447.476C16.2764 446.61 15.9175 445.719 16.7706 444.402C17.4882 443.291 18.3142 442.381 19.1402 441.399C19.8308 440.579 18.7001 438.952 19.2485 437.68C19.3365 437.467 19.4517 437.26 19.5532 437.054C19.5397 436.156 19.7428 435.181 18.5783 434.723C17.996 433.993 17.1565 433.412 17.1294 432.372C16.9602 432.075 16.7909 431.772 16.6216 431.475C16.3035 431.416 15.9446 431.404 15.7889 431.074C14.6921 428.666 15.7076 427.051 18.8491 426.373C19.5802 426.218 20.1355 426.037 20.2167 425.334C20.3048 424.578 19.5939 424.539 19.059 424.436C17.055 424.062 16.6284 422.706 16.6149 421.027C16.6013 419.696 16.8586 418.321 17.2783 417.178C17.7929 415.764 18.3142 413.917 20.1693 413.413C21.1307 413.149 21.4421 412.832 21.5573 411.903C21.7197 410.54 22.6608 409.63 24.1503 409.63C25.4367 409.623 26.2221 409.158 26.933 408.151C28.2465 406.291 29.262 406.298 30.9072 407.957C31.6316 408.687 32.3155 409.21 32.7285 407.738C32.8774 406.821 33.5477 405.852 32.0311 405.258C31.0359 404.87 31.0088 403.715 30.8734 402.856C30.7583 402.1 31.3134 401.442 32.1123 401.048C32.9044 400.654 33.2836 401.067 33.6966 401.603C34.6038 402.791 35.9241 402.785 37.197 402.494C37.9823 402.32 38.7474 402.12 39.5531 402.146C39.7088 400.957 38.9641 400.886 37.9621 400.693C35.8836 400.279 35.2471 398.097 36.6282 396.56C36.9735 395.378 37.2375 394.003 38.8489 393.964C40.1759 393.932 41.469 395.779 41.5096 397.432C41.5232 397.961 41.618 398.536 41.029 398.898C41.2592 399.337 40.1352 400.202 41.5096 400.286C42.3628 399.104 43.3174 398.865 44.4007 400.021C44.5429 400.17 44.6444 400.609 44.834 400.402C46.3235 398.704 47.4948 400.467 48.7947 400.693C50.4941 400.996 51.2456 400.512 51.2456 398.807C51.2456 397.225 51.9497 395.656 51.2998 394.048C51.1305 393.635 51.2388 393.034 51.6653 392.77C53.3918 391.711 53.1278 389.986 53.3918 388.424C53.4798 387.901 53.9334 387.345 53.3105 386.958C52.8163 386.654 52.1799 386.726 51.7195 387.126C50.7919 387.939 50.0201 387.746 49.2077 386.945C48.0906 385.828 47.224 386.538 46.3506 387.358C44.8746 388.747 43.3851 389.722 41.0425 390.051C38.9911 390.335 36.4522 391.414 35.6532 393.945C35.5043 394.416 35.3554 394.933 34.834 394.965C34.1299 395.017 34.1842 394.39 34.2044 393.958C34.2383 393.163 33.7576 392.666 33.2498 392.156C32.6134 391.504 32.7623 390.832 33.0128 390.019C33.9607 386.939 34.4889 383.884 33.2498 380.662C32.3765 378.389 31.6046 375.903 32.6404 373.462C34.0622 370.117 34.4279 366.676 34.2044 363.124C34.1164 361.729 34.1909 360.335 34.1909 358.94C34.1976 358.404 34.1097 357.836 34.6784 357.468C34.4347 354.252 35.6194 351.456 37.4813 348.873C38.6188 347.304 39.1807 345.761 37.9417 343.972C37.3256 343.087 37.2376 341.789 37.8063 341.098C38.8625 339.813 39.3703 338.341 40.1624 336.972C41.1915 335.183 41.2389 335.106 39.1265 334.667C36.1611 334.041 35.1929 333.02 35.721 330.45C36.1475 328.39 35.8023 326.105 37.6167 324.393C34.834 323.606 33.3581 322.011 33.8659 320.067C34.658 317.032 35.721 314.068 36.6553 311.065C36.872 310.381 37.3256 310.045 38.0704 310.026C38.7 310.013 39.2213 310.232 39.438 310.794C40.2978 313.016 41.9836 314.701 43.4798 316.503C44.6918 316.703 45.5178 315.954 46.2151 315.263C47.2442 314.249 48.4426 313.694 49.8847 313.493C46.1001 313.067 46.1204 313.061 44.9288 309.606C44.8205 309.29 44.4549 309.012 44.4413 308.605C43.9607 307.908 44.272 307.282 44.7392 306.752C45.2334 306.197 45.4839 305.616 45.4095 304.899C45.098 304.724 44.7866 304.557 44.4819 304.389C42.945 304.188 42.0513 303.181 41.6045 301.948C41.1847 300.792 42.3289 300.275 43.1143 299.61C44.184 298.7 44.3127 295.775 43.243 294.599C41.8889 293.101 41.4826 291.403 41.5096 289.53C40.7581 288.407 40.7785 287.09 40.555 285.843C40.4128 285.056 40.5957 284.306 41.5165 283.945C42.119 283.073 42.7081 282.189 43.9403 282.072C45.8631 279.412 48.7879 279.302 51.7533 279.283C52.1054 277.591 54.3261 278.74 54.9828 277.249C54.1975 276.764 53.297 277.029 52.4642 276.965C51.4216 276.881 50.3248 277.191 49.3431 276.719C47.1427 275.66 45.3417 275.86 44.096 278.082C43.771 278.663 43.0601 279.012 42.8638 278.327C42.3898 276.68 41.5504 277.746 40.7785 277.856C39.9661 277.965 39.0656 277.991 38.7135 277.074C38.4495 276.377 38.463 275.654 39.5598 275.57C39.8848 275.563 40.2098 275.563 40.5348 275.563C40.5821 272.961 41.5165 271.644 43.3986 271.889C45.9375 272.218 48.6999 271.334 51.0086 273.064C51.1847 273.2 51.4555 273.058 51.5977 272.761C51.4825 271.947 50.6972 271.566 50.1555 271.037C49.5124 270.404 49.1128 269.655 48.754 268.88C47.7588 266.704 48.1853 265.574 50.4399 264.56C51.6044 264.037 52.3424 263.398 51.7533 262.074H50.7852C50.5753 263.514 49.6072 263.934 48.2057 263.947C46.5876 263.96 45.2875 263.223 43.9538 262.533C42.4237 261.777 41.53 260.421 42.119 258.987C42.9451 256.986 42.857 255.12 42.5252 253.098C42.0378 250.122 43.4122 248.695 46.6214 248.572C47.1901 248.553 47.7588 248.559 48.3275 248.559C48.3885 247.636 48.9436 247.216 49.8779 247.164C50.7175 247.113 51.0831 246.654 51.2727 245.873C51.9023 243.296 52.2882 243.038 55.1589 242.973C54.8272 242.218 54.1772 241.985 53.3918 242.063C52.4575 242.166 51.645 241.785 50.8122 241.527C50.0066 241.282 49.4243 240.733 49.3431 239.867C49.2619 238.931 49.8915 238.628 50.6972 238.247C51.7533 237.749 53.0127 237.498 53.8048 236.587C54.624 235.651 55.6464 235.489 56.8379 235.522C58.8488 235.58 60.8731 235.573 62.8907 235.522C64.299 235.489 65.0505 235.987 64.9354 237.407C64.9421 238.247 72.5183 239.131 72.6875 237.517C72.8567 235.928 73.3036 234.256 72.2609 232.745C71.8141 232.015 71.0558 231.408 71.2725 230.427C70.5684 230.382 70.1825 230.059 70.4059 229.368C70.7918 228.212 71.8886 228.193 73.0192 228.057C71.6652 227.547 70.9069 226.385 69.6476 225.913C68.2325 225.39 67.6707 224.389 67.8603 222.975C65.8765 222.31 64.1229 222.614 62.6402 224.086C62.5319 224.196 62.3897 224.286 62.2543 224.363C60.0471 225.577 57.9551 224.996 56.8176 222.865C55.8224 221.006 56.0593 220.392 58.5711 218.307C58.5982 217.629 58.2597 217.183 57.6166 216.925C56.0661 215.259 55.7412 213.509 56.7838 211.404C57.5692 209.822 58.2597 208.143 58.1108 206.29C58.0092 204.972 58.1988 203.726 58.7878 202.46C59.6951 200.51 59.3159 199.703 57.4946 198.392C57.1765 198.16 56.8785 197.876 56.6348 197.572C55.9713 196.752 55.8562 195.809 56.5671 195.028C57.19 194.356 57.9889 194.415 58.666 195.138C59.0383 195.545 59.5461 195.616 59.9117 195.17C60.1961 194.834 60.6091 194.389 60.2841 193.93C59.9591 193.478 59.3633 193.356 58.8081 193.201C55.7344 192.335 55.1792 191.619 55.1724 188.674C55.1724 187.744 55.2807 186.801 55.1521 185.891C54.888 184.031 55.4636 182.585 57.1291 181.558C57.4472 180.777 58.2801 180.066 58.0431 179.227C57.5421 177.484 57.1765 175.895 59.255 174.836C59.3701 174.778 59.3768 174.423 59.343 174.216C58.9502 171.737 58.4764 169.251 56.0594 167.733C54.7933 166.932 54.2652 166.041 55.0099 164.666C55.1927 164.33 55.4026 163.949 55.3958 163.587C55.3485 159.649 55.2536 155.71 55.1724 151.777C55.0573 150.925 55.4771 150.318 56.0661 149.724C56.8379 148.942 56.9395 148.109 55.9916 147.328C52.8095 150.182 51.6856 150.111 50.2435 147.025C49.7967 146.069 49.3499 144.99 50.3113 144.248C51.293 143.492 52.3762 143.66 53.2563 144.739C53.9131 145.552 54.4277 145.339 54.6849 144.332C55.2536 142.065 56.1745 141.826 58.104 143.396C58.5577 143.363 59.255 143.505 59.3565 143.021C59.5867 141.904 60.0268 141.032 60.8325 140.115C61.4892 139.366 61.171 138.172 59.5664 138.275C58.2259 138.101 56.8786 137.965 55.6599 137.352C55.0506 136.467 53.9605 136.26 53.1007 135.744C52.322 135.266 51.1102 135.246 51.2998 133.968C51.4894 132.683 52.3966 132.173 53.7033 132.218C54.6714 130.933 55.2672 130.939 56.6348 132.231C56.6415 132.379 56.6483 132.528 56.6483 132.683C57.6029 132.67 58.0634 132.186 58.104 131.295C57.7723 130.52 57.1359 129.745 58.104 128.97C60.1487 128.725 59.7357 126.8 60.5413 125.709C61.0153 124.598 62.0444 124.792 62.9787 124.779C63.1751 123.662 62.3964 122.274 63.9604 121.525C64.9692 120.801 66.3504 121.312 67.3592 120.582C67.3456 119.897 67.4269 119.226 66.9732 118.58C65.9847 117.166 66.1811 115.642 66.8514 114.183C67.5352 112.691 67.7993 111.606 65.5447 111.161C64.3125 110.915 63.2089 108.378 63.5136 107.273C63.9469 105.743 65.2807 106.182 66.3301 106.182C67.7722 106.182 68.4628 105.543 68.9434 104.271C69.5054 102.773 70.1012 100.887 71.997 100.693C74.1026 100.474 73.9265 99.3504 73.5744 98.1493C73.0734 96.4575 74.0687 96.1217 75.416 95.9345C76.3503 95.8053 77.3794 96.2057 78.3543 95.4179C76.0118 95.8505 75.4566 94.2943 74.7593 92.8543C74.529 92.3765 74.0416 91.9826 73.8927 91.4854C73.6557 90.717 73.3239 90.6008 72.5183 90.7622C70.2976 91.2142 68.4153 90.5362 66.8852 88.9477C65.0708 89.0187 63.2766 87.5723 61.4215 88.9025C61.2726 89.0058 60.7716 88.825 60.5413 88.6442C59.4445 87.7531 58.3004 87.8499 57.1629 88.4763C55.951 89.1479 54.6443 88.9283 53.3579 88.9348C52.0851 88.9412 51.4893 88.1857 51.8549 87.1203C52.2679 85.9386 51.8346 85.6609 50.7987 85.0798C49.6546 84.4405 48.1108 83.2717 48.5374 81.8899C49.1874 79.7848 49.3363 77.2535 52.2408 76.1041C50.1894 75.8265 50.1894 75.8265 48.3411 74.0507C48.1041 74.012 47.8401 74.0249 47.637 73.9216C46.1272 73.1467 45.8022 71.0933 43.8184 70.7575C43.4123 70.6865 43.4799 69.9762 43.6627 69.5048C44.0689 68.4264 44.7866 67.8969 46.0459 67.9873C47.075 68.0584 48.1921 67.742 47.9281 66.5603C47.4677 64.5262 48.8488 65.1074 49.6275 65.4625C50.5618 65.8952 51.3471 66.4247 52.6606 65.8241C51.293 64.8878 51.1305 63.6997 51.2659 62.4211C49.9592 62.2597 48.7067 61.6915 48.6051 60.4323C48.4562 58.5532 49.2821 56.6871 49.0384 54.7499C48.991 54.4206 49.5936 54.2785 49.9185 54.0525C51.2049 53.1678 52.8163 53.2389 54.1975 52.6448C54.8271 51.6116 55.0167 50.0813 56.2421 49.7003C57.8061 49.2095 56.54 48.5444 56.6348 47.9955C56.3843 47.24 55.5515 47.1238 55.0302 46.6654C54.0011 45.7613 53.7032 43.1009 54.7526 42.7716C57.1765 42.0161 56.3978 40.2016 56.628 38.6971C56.4656 38.6906 56.3099 38.6841 56.1474 38.6841C54.7865 37.9286 53.0804 38.6841 51.7533 37.7608C51.5909 37.7608 51.4284 37.7608 51.2727 37.7543C49.7019 37.2506 50.1488 36.3531 50.7784 35.4232C51.0966 34.5192 52.0241 34.5192 52.7486 34.2609C55.3214 33.3375 57.0342 31.6651 58.517 29.4179C59.7627 27.526 60.0539 25.408 61.0288 23.4966C61.5095 22.5474 62.0986 21.7015 63.2157 21.5207C66.9665 20.9201 69.7424 23.2771 69.8168 27.0481C70.8663 27.0029 71.7125 27.2225 71.7667 28.4493C71.7667 28.7528 71.7735 29.0563 71.7735 29.3598C73.263 29.8183 74.7119 30.2251 76.0795 28.9853C76.4519 28.6495 77.1222 28.6301 77.657 28.4493C79.8777 27.7132 82.0916 27.6422 84.4613 27.9198C88.3272 28.3783 92.0713 26.7898 95.9981 26.9125C97.3116 26.9577 98.7401 26.2151 100.155 25.9181C100.947 25.7567 102.186 25.4661 102.538 24.5427C103.215 22.7411 104.847 22.0631 106.438 21.779C108.848 21.3528 111.286 20.9589 113.703 20.6231C115.558 20.3713 117.399 20.4617 118.869 19.1379C119.539 18.5309 120.378 18.6795 121.177 18.6795C123.696 18.6666 126.208 18.6924 128.72 18.6472C129.166 18.6407 129.674 18.9507 130.033 18.1048C130.967 15.9222 134.224 14.6824 136.573 15.3281C137.629 15.6187 138.604 16.0061 139.857 15.6123C141.732 15.0182 142.254 15.4637 142.511 17.3686C142.599 18.0273 142.592 18.6278 143.493 18.673C144.061 18.673 144.61 18.6924 145.104 19.054C146.478 20.0419 148.008 19.8676 149.146 18.9248C150.791 17.5559 153.486 17.459 154.258 15.0053C154.379 14.6114 155.117 14.3079 155.632 14.1271C157.318 13.5395 158.449 14.1916 158.597 15.9222C158.692 17.0199 158.841 17.7302 160.297 17.3234C161.441 17.007 162.572 17.5624 163.587 17.8917C164.962 18.3437 166.262 18.3049 167.325 17.6592C169.593 16.2774 171.143 17.4913 172.788 18.6601C175.388 18.4987 176.295 17.2911 175.212 15.4185C174.176 15.4056 173.127 15.496 172.111 15.3669C170.026 15.1086 169.261 13.9592 169.843 12.1576C170.012 11.4925 170.195 10.8339 170.337 10.1688C170.452 9.61988 170.615 9.0129 171.312 9.09684C171.922 9.17433 172.301 9.90401 172.138 10.3108C171.786 11.189 172.558 11.5506 172.775 12.1511H173.75C173.797 11.5894 174.928 11.3375 174.278 10.5885C173.709 9.92984 174.196 9.70383 174.691 9.36159C176.35 8.20574 176.939 8.27677 177.602 10.1558C178.008 11.3117 178.57 11.5958 179.437 10.8339C181.109 9.3616 181.062 9.31639 181.732 11.5312C181.8 11.7508 181.942 11.951 182.043 12.1576C188.272 11.6733 194.366 13.5072 200.588 13.0939C202.057 12.9002 203.499 13.1843 205.043 12.5773C206.126 12.1447 207.737 12.9712 209.159 12.9648C209.227 12.9648 209.301 13.6492 209.369 14.0173C210.56 14.0238 211.745 14.0238 212.937 14.0238C215.713 14.0173 215.713 14.0173 214.731 11.6991C214.318 11.4667 213.79 11.2923 214.135 10.6724C214.805 9.45846 215.977 8.94187 217.317 8.92896C219.775 8.90313 222.131 9.50366 224.311 10.5175C225.394 11.0147 226.715 11.6087 226.512 13.236C226.437 13.7913 226.979 14.0625 227.5 13.9915C229.166 13.7784 230.824 14.5726 232.388 12.6419C233.627 11.118 233.742 11.1115 231.928 10.6853C230.777 10.4206 230.025 9.56823 230.486 8.41238C231.298 6.40416 233.654 6.22981 235.232 7.96682C236.207 7.96682 237.182 7.93454 238.15 7.97328C239.342 8.02494 239.714 7.56001 239.524 6.42999C239.098 3.85999 240.147 2.62019 242.585 3.43381C244.785 4.16994 246.816 3.84062 248.935 3.77605C251.345 3.69856 253.742 3.75667 256.173 3.42735C258.698 3.07865 261.359 3.00763 263.911 3.54358C265.442 3.86645 266.775 3.98913 267.859 2.68476C268.251 2.21338 268.718 2.04549 269.348 2.32315C270.499 2.83328 271.887 2.70413 272.936 3.56941C273.525 4.05371 274.108 3.90519 274.893 3.6017C276.423 3.00117 278.007 2.71059 279.808 3.19489C281.86 3.75022 284.013 4.12474 286.254 3.54358C287.093 3.32403 288.38 3.58878 288.908 4.71235C290.14 5.46785 291.846 5.31933 292.808 6.57205C293.295 6.57851 293.857 6.42999 294.25 6.61079C297.317 8.02494 300.289 7.28235 303.41 6.7012C305.367 6.33313 307.879 5.76489 309.517 7.08218C312.354 9.3616 315.962 7.48898 318.725 9.4068C317.567 6.27501 318.055 5.95861 320.627 5.18373C321.277 5.17082 321.92 5.1579 322.57 5.15144C323.965 4.64132 325.069 6.24273 326.477 5.6422C327.174 5.8682 327.56 6.66891 328.413 6.58496C328.901 6.57851 329.537 6.45582 329.794 6.84325C330.444 7.79893 331.196 7.87642 332.252 7.55356C332.841 7.37276 333.572 7.38567 334.182 7.53419C337.817 8.41883 341.426 7.27589 344.547 6.23627C348.325 4.98356 351.311 6.77868 354.662 6.83034C354.865 6.83034 355.062 7.26944 355.265 7.50836C356.328 8.01203 357.506 8.393 358.406 7.46315C359.395 6.4429 360.349 6.61725 361.446 7.05634C362.279 7.38567 363.132 7.59876 364.039 7.49544C366.037 6.58496 368.176 6.51394 370.329 6.57851C371.04 6.59788 371.426 6.94657 371.825 7.52773C373.423 9.87172 375.779 11.0405 378.69 11.2278C379.686 11.118 380.146 12.2738 381.135 12.1641C381.9 11.7508 382.516 11.0147 383.545 11.2148C384.31 9.83944 386.091 10.4529 387.106 9.55532C387.418 9.27765 387.993 9.51658 388.142 8.8321C388.731 6.19753 389.422 5.99735 392.048 7.31464C393.531 8.05722 395.048 8.47695 396.869 8.08306C398.88 7.64396 401.013 7.67625 403.084 7.50836C403.592 6.37188 404.648 6.54622 405.596 6.58496C406.74 6.63662 407.553 6.38479 408.209 5.33225C408.765 4.4476 409.503 3.49838 410.762 3.33695C413.917 2.91722 416.862 1.70326 420.2 1.78074C422.827 1.83886 425.271 1.6064 427.18 3.60816C428.399 2.98826 428.148 1.16084 429.597 1.06398C431.615 0.921923 433.836 0.553853 435.63 1.17375C437.234 1.72908 438.114 1.36102 439.265 0.676544C441.073 -0.401823 442.468 -0.208103 443.802 1.38039C444.492 2.20047 445.318 2.41356 446.361 2.40064C448.961 2.35544 451.567 2.44584 454.16 2.34898C455.054 2.31669 455.927 3.08511 456.733 2.53624C457.837 1.7872 458.859 1.59993 459.699 2.69767C460.477 3.71793 460.416 4.84795 459.651 5.93278C459.265 6.47519 458.588 7.0176 459.265 7.76665C460.01 8.59318 460.971 8.61255 461.926 8.23803C462.508 8.01203 462.935 7.46316 463.673 7.52127C466.273 7.73436 468.873 7.79248 471.479 7.52773C472.258 7.44378 473.043 7.54064 473.862 7.7731C476.591 8.54152 479.34 9.33577 482.136 9.74903C483.436 9.94275 484.756 10.6983 486.259 10.1106C485.778 9.03228 484.018 8.01848 485.785 6.77868C486.868 6.01672 489.109 6.68828 489.861 7.81185C491.208 9.8007 488.987 9.94921 488.1 10.7176C488.486 11.3698 489.272 11.499 489.455 12.1576C489.617 12.1641 489.773 12.1641 489.935 12.1641C492.61 11.7314 494.451 13.6686 496.448 14.6824C497.911 15.4314 499.536 17.1233 499.339 19.5964C500.429 18.5374 501.519 18.7699 502.555 18.6536C505.514 18.3243 508.459 19.5706 511.418 18.6795C513.178 17.6205 514.966 17.543 516.841 18.447C517.735 18.8796 518.743 18.6278 519.705 18.6795C522.406 19.0992 525.216 18.3179 527.877 19.4673C528.811 19.8676 529.542 19.6416 529.278 18.2339C528.811 15.7091 529.603 15.0182 532.318 14.9278C533.882 14.8826 535.554 15.4056 536.963 14.2304C537.355 13.9011 537.89 14.0302 538.296 14.3466C540.206 15.8253 542.453 16.8843 544.112 18.6601C545.967 18.5632 547.687 19.1444 549.461 19.4608C551.688 19.8612 553.51 20.565 555.182 21.9598C556.563 23.1092 558.195 23.1673 560.111 22.4053C559.359 21.7144 558.689 21.1849 558.425 20.3777C558.174 19.6158 558.357 19.1831 559.251 19.1573C559.732 18.8409 560.212 18.5245 560.693 18.2081C560.923 16.8133 562.088 16.1676 563.137 15.4185C563.598 15.2442 563.929 14.9342 564.112 14.4887C565.317 13.5782 566.807 14.8955 568.012 14.0238C569.149 13.9721 570.26 13.8817 570.95 15.0828C571.174 15.4831 571.641 15.341 571.925 14.9536C573.55 14.2175 575.175 14.2175 576.8 14.9472C577.524 15.496 577.775 16.4904 578.743 16.8069C579.799 15.3604 581.079 15.5477 582.162 16.626C583.489 17.9498 584.823 19.0088 586.915 18.7311C587.253 18.6859 587.646 18.9959 588.012 19.1444C588.526 18.9378 589.02 18.5503 589.582 18.6924C591.329 19.125 591.878 17.995 592.412 16.8133C592.765 15.9416 593.523 15.8318 594.369 15.8835H596.8C600.578 16.0772 604.403 15.4121 608.147 16.3613C610.53 16.9683 612.873 16.8198 615.31 16.5098C617.064 16.2903 619.162 15.5025 620.713 17.2782C623.34 19.2025 632.229 19.3317 633.929 17.4655C634.552 18.7634 637.03 19.209 638.458 18.2275C639.433 17.5559 640.09 16.0965 641.661 17.4138C643.157 18.6666 643.78 15.8124 645.256 16.6325C645.818 16.9489 646.596 16.6519 647.084 17.1362C647.679 17.7302 648.566 17.7044 649.23 18.1693C650.32 18.9378 651.518 18.9313 652.608 18.221C653.57 17.6076 654.321 18.0789 655.269 18.2081C657.706 18.5503 660.117 20.2098 662.683 18.6795C663.644 18.6407 664.484 18.8667 665.12 19.6029C665.628 19.6029 666.041 19.7966 666.4 20.1388C667.781 21.4496 669.365 22.1212 671.349 22.5861C673.549 23.1027 676.088 23.361 677.801 25.182C678.288 25.4984 678.776 25.8083 679.263 26.1183C679.995 26.3701 679.48 27.2483 680.042 27.597C681.247 26.0666 682.391 25.8406 682.425 26.8415C682.479 28.4623 683.847 29.3727 684.145 30.7804C685.736 31.2583 687.496 30.916 689.026 31.6974C690.55 32.4464 691.897 32.8984 693.502 31.5359C694.504 30.69 695.939 31.7232 695.898 33.0986C695.858 34.5257 696.298 35.2037 698.004 35.5072C701.206 36.0754 704.368 37.0182 706.115 40.0725C706.738 40.066 707.164 40.4018 707.584 40.7957C708.248 41.4156 708.972 42.1388 708.309 42.9847C707.699 43.7596 706.826 43.1784 706.095 42.8749C702.141 41.2348 698.227 39.4784 694.206 38.0126C692.757 37.4831 691.173 37.0698 689.683 36.6307C687.814 36.0819 686.738 36.1077 685.804 37.7091C685.777 37.7478 685.648 37.7478 685.567 37.7414C683.752 37.6574 681.809 38.2386 680.238 36.8244C679.588 36.8244 679.27 37.1344 679.263 37.7543V38.2192C679.081 39.5882 678.2 40.1306 676.826 40.0854C676.67 40.2403 676.508 40.3953 676.345 40.5503C676.427 41.0798 675.594 41.9903 677.022 41.9644C677.652 41.9515 678.052 42.339 678.288 42.8749C678.844 43.3657 679.311 44.0179 680.238 43.8048C681.328 43.3399 682.317 42.7458 683.17 41.9451C684.01 41.8934 684.761 42.0032 685.127 42.8685C685.946 43.6175 687.266 42.9395 688.051 43.8048C688.918 43.9856 689.805 44.1212 690.489 44.7346C691.322 45.5353 692.601 45.6386 693.326 46.7364C694.592 48.6413 695.546 48.7704 697.787 47.8277C698.925 47.3498 699.927 47.3434 700.198 48.7252C700.407 49.8423 700.705 50.4041 702.08 50.0425C702.716 49.8746 703.15 50.7657 702.838 51.1467C701.66 52.5867 702.926 53.3422 703.725 54.0008C706.217 56.0413 707.95 58.4047 708.078 61.6398C708.105 62.1951 708.315 62.8021 708.769 63.0798C710.157 63.9321 710.969 65.3334 712.242 66.2697C714.138 67.6645 714.828 69.5435 714.889 71.7261C715.851 72.4687 715.919 73.4889 715.844 74.5479C715.709 76.1429 717.171 77.2148 717.34 78.7064C717.801 78.8808 718.126 79.1907 718.308 79.6363C719.202 80.6178 718.877 81.3604 717.814 81.9674C717.652 82.2773 717.489 82.5808 717.334 82.8907C717.814 84.5438 718.471 86.171 718.742 87.8564C719.033 89.6386 718.234 90.0519 716.528 89.3868C715.032 88.8056 713.42 88.4634 711.998 87.159C712.059 88.5473 712.439 89.2383 713.583 89.5288C714.558 89.7742 715.566 90.3618 715.594 91.3369C715.641 93.4161 716.765 94.0296 718.715 94.1652C719.642 94.2297 720.265 95.0046 720.218 95.999C720.17 97.142 719.331 97.3357 718.349 97.3292C717.056 97.3228 715.756 97.4326 714.564 96.7352C714.124 96.4704 713.407 96.0636 713.177 96.8514C712.98 97.5165 713.711 97.6715 714.287 97.7813C715.072 97.9427 715.871 98.0847 716.643 98.2914C717.503 98.5174 718.376 98.7692 718.789 99.6474C721.348 100.054 721.348 103.27 723.833 103.832C724.239 103.922 725.153 104.51 724.747 105.214C724.28 106.014 723.528 105.511 722.824 105.31C718.972 104.226 715.418 102.321 711.403 101.669C710.225 101.475 708.715 101.32 708.546 99.6474C708.031 98.4786 707.191 98.7692 706.413 99.2923C705.214 100.087 704.212 101.074 703.678 102.418C705.011 103.309 706.074 104.484 707.178 105.607C708.166 106.621 706.765 108.907 709.209 109.243C710.021 105.956 710.563 105.646 712.926 107.106C714.768 107.144 715.736 108.068 715.864 109.798C715.932 110.689 716.264 111.516 716.954 112.058C719.48 114.008 721.633 116.482 724.774 117.573C726.331 118.115 727.665 118.922 728.979 119.814C729.602 120.233 730.61 120.421 730.421 121.441C730.245 122.384 729.405 122.777 728.572 123.126C727.53 123.559 726.616 123.43 725.634 122.771C722.933 120.969 719.92 119.665 717.009 118.199C715.824 117.605 715.018 117.573 714.795 119.084C714.768 119.284 714.558 119.471 714.409 119.639C713.285 120.905 713.413 121.964 715.005 122.713C716.142 123.242 716.677 124.108 716.846 125.244C717.774 125.683 718.349 126.594 719.487 126.82C720.15 126.949 720.793 127.575 720.665 128.376C720.536 129.215 719.906 129.732 719.026 129.861C718.471 129.945 717.895 129.893 717.327 129.9C716.487 129.951 715.736 129.835 715.37 128.97C714.551 128.505 713.752 127.995 712.906 127.575C712.378 127.317 711.694 126.755 711.2 127.446C710.665 128.195 711.437 128.686 711.951 129.138C712.933 130.01 714.185 130.604 714.883 131.759C715.648 132.928 716.413 133.723 718.18 133.232C719.723 132.799 721.301 133.916 721.788 135.046C722.648 137.061 723.488 136.602 724.72 135.647C723.637 134.717 722.019 133.684 723.129 132.283C724.104 131.062 725.803 131.747 727.096 132.521C727.164 132.56 727.218 132.625 727.293 132.664C728.823 133.49 730.109 134.652 731.612 135.537C732.994 136.351 734.375 137.506 735.011 139.082C735.532 140.374 733.589 139.838 733.488 140.742C733.481 140.813 733.44 140.897 733.454 140.968C733.711 142.905 732.195 142.937 730.15 143.066C733.109 145.152 732.838 147.412 731.775 149.846C731.118 151.357 729.737 151.951 728.43 150.873C726.799 149.524 724.808 148.51 723.657 146.656C723.332 146.637 722.939 146.721 722.696 146.573C719.243 144.455 715.431 143.047 711.68 141.529C708.566 140.277 705.214 139.663 701.755 138.062C702.513 139.779 703.447 140.483 704.849 140.593C705.492 140.645 706.128 140.561 706.711 140.974C708.722 142.395 710.82 143.68 712.77 145.217C715.485 147.36 716.724 150.589 719.412 152.72C720.245 153.385 720.712 154.554 719.825 155.658C719.5 156.071 719.561 156.291 720.103 156.452C721.091 156.736 721.883 157.944 723.129 156.794C723.793 156.175 724.531 156.723 724.524 157.363C724.51 158.648 725.627 159.209 726.101 160.159C726.758 161.327 727.983 162.025 728.728 163.161C729.615 164.511 730.082 165.583 728.376 166.648C727.537 167.171 727.415 167.991 727.767 168.902C728.071 169.696 728.295 170.51 728.552 171.317C729.771 173.196 729.514 175.288 729.514 177.342C729.514 178.22 728.965 178.956 728.173 179.079C726.968 179.266 726.67 179.763 726.507 180.867C726.304 182.307 724.659 183.334 723.799 182.682C722.574 181.758 721.044 181.519 719.818 180.557C715.979 177.535 711.321 175.921 706.738 174.255C704.774 173.545 703.102 174.707 701.586 175.701C700.915 176.14 700.956 177.148 701.674 177.735C702.324 178.271 703.007 178.93 704.016 178.762C705.607 178.497 706.67 179.298 707.516 180.383C708.261 181.339 709.284 181.92 710.218 182.636C711.558 183.67 713.258 184.587 712.933 186.679C712.933 186.834 712.933 186.989 712.94 187.144C713.84 187.486 713.962 188.203 713.914 188.997C714.862 189.475 715.499 190.288 716.223 190.992C717.862 192.581 717.814 193.414 715.776 194.499C714.93 194.951 714.998 195.248 715.316 195.88C715.553 196.352 715.688 196.875 715.871 197.378C716.805 197.424 717.32 197.869 717.313 198.793C717.32 199.096 717.334 199.393 717.34 199.69C717.496 199.697 717.652 199.71 717.807 199.716C720.698 203.145 722.005 207.045 721.694 211.436C721.66 211.933 721.45 212.514 720.976 212.54C718.708 212.669 719.405 213.974 719.845 215.097C720.143 215.853 719.832 216.279 719.256 216.653C718.613 217.073 718.187 216.615 717.814 216.221C716.88 215.233 715.803 214.445 714.49 213.961C711.03 212.702 708.214 214.355 708.078 217.822C708.038 218.894 707.584 219.772 707.117 220.651C705.959 222.84 705.607 224.835 707.963 226.578C708.444 226.933 708.681 227.579 709.033 228.096C710.333 229.51 710.509 230.627 709.168 231.163C707.544 231.809 709.033 232.241 709.033 232.752C710.17 233.991 711.308 235.231 712.445 236.471C713.657 237.627 714.531 239.009 715.363 240.423C716.48 242.321 715.912 243.316 713.705 243.341C710.509 243.38 710.116 243.742 709.852 245.918C709.737 246.841 710.306 247.171 710.732 247.668C711.592 248.682 712.608 249.592 713.38 250.664C714.639 252.42 713.833 253.776 712.039 254.719C710.428 255.572 709.06 256.217 707.232 255.623C706.785 255.481 706.217 255.94 706.061 256.334C704.734 259.659 702.581 259.691 699.852 257.877C699.372 257.554 698.769 257.515 698.349 258.083C697.645 259.039 698.816 258.768 699.094 259.052C700.096 260.092 700.746 262.558 699.974 263.32C698.911 264.366 697.693 264.069 696.454 263.385C695.106 262.649 695.492 263.811 695.37 264.392C696.772 265.025 696.86 266.491 697.605 267.518C698.674 268.977 698.16 269.726 696.833 270.449C696.995 270.914 697.158 271.379 697.327 271.837C699.886 273.103 702.506 274.175 705.485 273.497C706.393 273.29 707.604 272.942 707.78 273.923C708.166 276.099 710.123 277.617 710.15 279.928C711.105 279.799 711.965 279.709 712.824 279.56C714.483 279.27 715.208 279.761 715.363 281.368C715.411 281.827 715.35 282.298 715.377 282.757C715.458 283.951 715.14 285.12 713.793 285.217C712.411 285.32 711.917 284.248 711.958 283.015C711.179 282.602 710.522 282.105 710.489 281.155C710.218 281.343 710.035 281.575 710.021 281.917C709.994 282.841 710.028 283.977 708.952 284.268C707.794 284.571 707.422 283.422 706.873 282.679C705.898 281.349 704.592 280.316 703.332 279.244C702.811 278.798 701.822 278.585 701.87 279.405C702.005 281.582 702.147 284.223 703.908 285.501C706.724 287.542 707.652 290.609 709.602 293.082C710.401 294.096 710.245 295.465 709.656 296.627C709.08 297.751 708.119 298.086 706.826 297.628C706.345 297.454 706.156 297.893 706.122 298.312C706.074 298.835 706.217 299.417 705.621 299.765C705.126 300.566 703.177 299.998 703.529 301.244C704.104 303.278 702.858 305.493 704.463 307.411C705.424 308.56 705.181 309.994 704.91 311.414C704.504 313.571 703.346 315.773 705.099 317.923C705.377 318.265 705.377 318.892 705.993 318.763C708.342 318.265 709.507 319.906 710.705 321.242C712.987 323.799 716.413 325.452 717.503 328.978C717.577 329.217 718.011 329.34 718.248 329.553C720.394 331.522 721.01 334.176 721.68 336.778C721.924 337.715 721.24 338.425 720.34 338.748C719.493 339.045 718.986 338.399 718.552 337.844C718.119 337.308 717.936 336.565 717.564 336.54C714.483 337.657 714.876 340.052 714.72 342.254C714.713 342.37 714.51 342.474 714.402 342.584C713.901 343.307 713.116 342.964 712.445 343.048C711.22 342.59 710.042 342.506 709.033 343.513C708.877 344.863 709.845 345.748 710.502 346.761C712.039 347.517 711.288 348.899 711.477 350.022C712.662 351.172 713.732 352.412 715.797 351.54C716.954 351.049 717.753 351.856 718.308 352.812C719.094 354.026 719.439 355.543 720.854 356.325C721.572 356.725 722.174 357.106 722.229 358.042C722.283 358.985 721.788 359.56 720.922 360.031C721.971 360.754 722.845 361.297 723.644 361.93C724.679 362.763 726.081 363.453 726.379 364.738C726.663 365.952 727.421 366.766 728.065 367.709C729.236 367.903 730.692 367.153 731.477 368.645C732.168 369.091 731.978 369.956 732.452 370.505C733.501 371.351 734.51 373.585 733.989 374.437C733.285 375.567 733.887 376.013 734.706 376.652C735.952 377.634 736.927 378.97 736.121 380.488C735.478 381.695 734.889 382.683 735.336 384.11C735.722 385.363 734.571 385.841 733.596 386.248C733.048 386.474 732.438 387.048 731.856 386.351C731.226 385.596 731.423 384.756 731.755 383.936C731.809 383.794 731.843 383.639 731.917 383.503C732.594 382.141 732.222 381.159 730.753 380.578C729.744 382.354 727.625 383.187 725.621 382.606C724.51 382.477 724.828 383.71 724.158 384.001C724.348 384.272 724.598 384.459 724.957 384.42C727.679 384.097 727.706 384.091 728.559 386.461C728.748 386.997 729.053 387.158 729.574 387.262C731.768 387.694 733.014 389.16 733.914 390.981C734.632 391.814 735.316 392.472 736.677 392.427C738.498 392.363 738.721 392.763 737.726 394.313C737.178 395.172 737.198 395.695 737.719 396.521C738.586 397.877 739.297 399.337 740.008 400.79C740.394 401.577 740.556 402.501 739.811 403.14C739.006 403.824 738.038 403.715 737.151 403.127C736.893 402.953 736.622 402.785 736.358 402.617C735.187 402.488 734.537 401.868 734.409 400.751C734.375 399.808 733.725 399.304 732.939 398.891C732.107 398.943 731.348 398.826 730.983 397.968C730.678 397.884 730.36 397.832 730.069 397.709C729.615 397.529 729.216 396.721 728.694 397.451C728.322 397.968 728.823 398.452 729.229 398.839C730.197 399.763 731.308 400.589 732.107 401.635C733.461 403.405 735.485 404.677 736.358 406.801C736.568 407.292 737.13 407.86 736.724 408.299C735.539 409.597 736.622 410.308 737.489 410.85C739.486 412.109 740.976 414.046 743.332 414.821C743.711 414.95 744.043 415.234 743.995 415.68C743.941 416.222 743.515 416.461 743.007 416.532C742.614 416.59 742.201 416.591 741.802 416.571C740.455 416.519 740.055 416.959 740.59 418.244C740.861 418.902 741.416 419.632 740.928 420.439C740.069 421.853 740.549 423.177 741.24 424.488C742.188 425.837 740.956 426.412 740.157 427.064C738.985 428.026 737.794 427.671 736.636 426.942C735.742 426.38 735.377 425.773 735.722 424.656C736.318 422.712 735.837 421.614 733.847 420.859C732.33 420.284 732.249 419.587 732.946 418.444C733.061 418.082 733.393 417.591 733.251 417.391C731.612 414.957 732.533 412.684 733.732 410.482C734.321 409.397 734.07 408.635 733.285 407.821C732.201 406.704 730.868 405.8 730.015 404.477C726.893 402.449 723.583 400.654 721.22 397.735C720.543 396.909 719.92 397.083 719.216 397.767C718.444 398.51 717.584 399.672 716.399 399.04C714.267 397.903 715.059 399.53 714.883 400.286H714.889C715.675 401.119 716.392 401.965 715.377 403.082C715.187 403.482 714.808 403.54 714.409 403.553C714.727 404.418 715.932 404.78 715.864 405.871C716.677 406.491 717.489 407.111 718.302 407.738C718.965 407.705 719.52 407.873 720.103 408.261C721.755 409.365 721.904 410.921 721.714 412.593C721.545 414.13 721.802 415.17 723.745 415.538C724.842 415.745 726.094 416.1 726.927 417.094C727.482 417.766 727.807 418.424 727.34 419.199C726.873 419.974 726.182 419.69 725.424 419.567C724.029 419.348 722.567 418.934 721.233 419.832C722.066 419.787 722.824 419.897 723.183 420.762C723.996 420.768 724.808 420.749 725.621 420.781C726.616 420.814 727.374 421.466 727.008 422.254C726 424.436 727.509 425.114 729.04 425.883C730.719 426.541 732.086 427.581 731.91 429.44C731.748 431.1 730.698 432.424 729.006 433.089C727.11 433.831 725.769 432.843 724.564 431.617C724.233 431.281 723.955 430.906 723.65 430.551C719.426 430.9 715.404 429.253 711.145 429.428C709.893 429.479 708.444 429.789 707.185 429.376C702.472 427.839 697.686 429.124 692.953 428.775C693.075 428.988 693.204 429.105 693.339 429.118C696.007 429.363 696.183 429.492 696.399 431.998C696.467 432.772 696.948 432.96 697.53 432.811C698.302 432.618 699.02 432.237 699.758 431.933C700.732 430.493 702.012 430.829 703.305 431.404C703.725 431.591 704.172 432.204 704.449 432.12C707.185 431.339 706.731 433.386 707.083 434.723C708.133 435.078 708.972 435.039 709.642 433.974C710.123 433.212 711.159 433.044 711.998 433.095C712.655 433.134 712.852 433.948 712.892 434.555C712.994 435.962 711.998 436.208 710.841 436.111C709.04 435.962 708.708 436.866 709.209 438.216C709.561 439.152 709.581 439.85 708.546 440.315C707.868 441.122 706.921 440.644 706.101 440.779C705.56 441.296 705.275 441.91 706.332 441.981C706.866 442.013 707.327 441.871 707.882 442.187C709.209 442.93 710.231 442.523 711.044 441.277C711.795 440.127 712.865 439.34 714.402 439.378C717.51 438.829 720.319 440.721 723.42 440.373C724.28 440.276 724.801 441.115 725.302 441.709C725.634 442.103 726.122 442.626 725.695 443.156C725.208 443.756 724.564 443.595 723.982 443.162C723.075 442.484 722.54 442.426 722.12 443.737C721.761 444.841 720.705 444.835 720.346 443.73C720.015 442.717 719.405 442.355 718.485 442.207C718.112 442.148 717.652 442.129 717.503 442.639C717.394 443.027 719.046 445.726 719.432 445.92C721.342 446.895 723.237 445.861 725.133 445.9C725.296 445.9 725.458 445.9 725.621 445.894C727.774 444.389 729.703 445.61 731.68 446.326C732.939 446.785 733.962 447.844 735.424 447.747C736.9 447.65 737.584 448.541 737.692 449.652C737.801 450.75 737.32 451.796 735.864 451.944C732.154 452.273 728.66 451.899 725.634 449.497C724.734 448.787 723.583 449.129 722.445 449.29C722.601 449.742 722.608 450.02 722.763 450.162C724.273 451.608 723.285 452.751 722.384 454.01C721.348 455.47 720.353 454.198 719.399 454.043C718.64 453.92 717.868 453.468 717.266 452.984C715.526 451.583 713.65 450.362 711.572 449.561C708.837 448.502 706.359 446.688 703.197 446.836C703.163 449.542 703.163 449.529 705.986 450.143C706.447 450.246 707.002 450.381 707.3 450.691C707.936 451.337 709.534 451.395 709.209 452.454C708.972 453.242 707.618 453.261 706.65 453.345C705.736 453.436 704.314 452.88 704.05 453.946C703.793 454.947 705.255 455.179 706.054 455.644C706.975 456.187 708.153 456.961 707.625 457.917C706.975 459.105 705.824 458.298 704.937 457.717C704.856 457.665 704.659 457.762 704.429 457.807C705.451 460.377 706.65 462.792 709.378 464.09C710.109 464.439 710.881 465.291 711.728 463.935C712.195 463.173 713.603 463.303 714.165 463.806C716.095 465.556 718.816 466.402 720.258 468.688C720.902 469.424 721.369 470.399 722.574 469.127C723.515 468.139 724.463 468.927 724.896 469.766C726.162 472.194 727.787 474.364 729.561 476.45C730.231 477.231 730.299 478.122 729.534 478.942C729.426 480.363 730.455 481.376 730.949 482.584C731.152 483.062 731.626 483.527 731.132 484.076C730.637 484.618 729.96 484.579 729.324 484.482C728.945 484.424 728.613 484.147 728.241 484.011C726.243 483.307 724.348 482.164 723.237 480.595C722.019 478.89 720.035 478.509 718.593 477.179C715.614 474.422 712.303 471.904 708.755 469.747C707.557 469.017 706.508 468.281 706.548 466.699C706.562 465.963 706.04 465.143 705.167 465.763C704.138 466.499 702.852 466.647 701.795 467.229C702.662 469.263 704.565 469.954 706.101 471.025C710.529 472.646 713.488 475.972 716.494 479.233C718.708 481.635 719.981 484.773 722.851 486.678C723.962 487.42 724.585 488.37 723.82 489.61C723.319 490.417 721.362 490.3 720.313 489.448C718.166 487.705 715.675 486.368 713.847 484.256C713.468 483.824 712.973 483.281 712.174 483.934C712.946 484.663 713.61 485.496 713.684 486.504C713.793 487.924 714.551 488.835 715.648 489.706C717.124 490.875 718.058 492.334 717.327 494.291C718.329 495.124 720.028 495.369 720.204 496.887C720.421 498.766 721.538 499.173 723.203 498.947C724.578 498.759 725.769 499.153 726.785 499.986C727.753 500.794 728.214 501.865 727.814 503.06C727.374 504.371 726.271 504.19 725.208 503.867C724.05 503.506 723.82 504.151 723.671 505.03C723.596 505.494 724.422 506.36 723.136 506.366C722.262 506.373 721.775 505.901 721.734 505.081C721.7 504.306 721.315 503.538 720.644 503.422C719.094 503.15 718.268 501.995 717.53 501.026C716.555 499.735 715.458 498.895 713.901 498.495C713.055 498.501 711.924 498.372 712.08 497.455C712.439 495.247 710.726 494.769 709.324 493.994C708.397 493.484 707.598 492.87 707.083 491.966C705.831 491.87 705.255 490.966 704.639 490.113C703.183 489.687 701.782 489.183 700.482 488.389C699.331 487.672 696.23 488.421 695.553 489.506C695.323 489.874 695.411 490.262 695.804 490.501C696.278 490.785 696.731 491.004 697.374 490.804C699.101 490.255 700.428 490.591 700.746 492.548C700.895 493.432 701.565 493.335 702.202 493.361C703.224 493.419 703.996 493.994 704.057 494.872C704.152 496.106 704.856 497.236 704.632 498.495C704.477 498.65 704.314 498.811 704.158 498.966C702.831 500.735 701.525 500.865 699.751 499.418C698.451 499.069 697.144 498.734 696.345 497.552C694.219 496.609 692.263 497.959 690.164 497.617C690.455 500.057 692.317 501.123 693.427 502.66C696.23 504.642 698.661 507.102 701.965 508.439C702.872 508.807 703.779 509.575 703.617 510.796C703.461 512.003 702.026 511.112 701.362 512.094C706.406 514.715 711.403 517.324 715.377 521.289C718.41 521.78 718.945 522.509 718.816 525.499C718.755 526.926 718.105 527.501 716.697 527.307C714.057 526.952 711.403 526.532 709.107 525.183C708.105 524.589 707.158 524.543 706.108 524.556C705.925 525.002 705.6 525.305 705.133 525.48C705.695 526.481 706.697 526.674 707.76 526.894C709.561 527.256 711.348 527.714 712.899 528.721C714.05 529.477 715.099 530.813 716.46 528.973C716.589 528.805 717.144 528.715 717.354 528.831C719.798 530.161 722.479 531.207 723.853 533.823C724.212 534.494 723.914 534.888 723.373 535.146C721.91 535.844 722.445 536.528 723.366 537.174C724.273 537.82 725.106 538.594 724.429 539.673C723.928 540.474 723.975 541.042 724.382 541.778C724.788 542.521 724.855 543.328 724.023 543.844C723.088 544.425 722.547 543.696 721.985 543.134C720.116 541.255 718.803 540.997 716.25 542.004C715.363 542.359 714.551 542.172 713.664 541.914C709.947 540.816 706.589 538.95 703.089 537.406C701.667 536.78 700.347 536.651 698.904 536.657C698.288 536.664 697.537 536.515 697.374 537.406C697.192 538.427 698.099 538.42 698.715 538.717C699.439 539.072 700.265 538.963 701.003 539.415C703.894 541.184 706.271 543.567 709.033 545.484C709.744 545.478 710.231 545.788 710.495 546.414C711.491 546.304 711.944 547.46 712.933 547.351C714.226 547.28 715.641 547.803 716.061 545.704C716.216 544.942 717.097 543.437 718.363 543.289C719.859 543.121 718.898 545.065 719.974 545.459C720.103 545.51 720.211 545.665 720.299 545.794C720.868 546.627 721.044 547.467 720.258 548.28C719.311 549.236 717.814 548.339 716.846 549.21C717.171 550.844 716.866 551.089 715.093 551.102C714.043 551.102 712.987 549.921 711.944 551.083C711.944 551.541 711.951 551.993 711.951 552.452C710.773 554.047 709.636 555.706 707.144 555.332C706.988 555.312 706.778 555.584 706.596 555.719C706.921 555.726 707.246 555.726 707.564 555.726C708.403 555.68 709.162 555.79 709.52 556.656C709.852 556.875 710.15 557.179 710.516 557.308C713.826 558.483 715.81 560.407 715.715 564.12C715.661 566.083 715.045 567.078 713.149 566.193C711.348 565.347 711.247 566.329 710.99 567.459C710.611 569.086 709.771 569.57 708.092 569.183C707.483 569.041 707.164 568.253 706.128 568.614C706.365 570.132 706.657 571.552 708.606 571.966C709.947 572.256 711.044 572.921 711.728 574.013C712.445 575.149 713.075 575.633 714.388 574.678C715.37 573.961 715.824 574.536 715.864 575.562C715.898 576.37 715.776 577.086 715.072 577.642C714.592 578.016 713.86 578.204 713.908 578.998C712.98 581.025 712.615 581.174 710.495 580.393C710.204 579.424 708.837 579.495 708.532 578.539C707.787 578.597 706.629 578.429 707.584 579.676C708.214 580.502 707.984 581.38 708.058 582.252C709.453 582.782 710.543 583.699 711.355 584.874C712.229 586.114 712.235 587.579 711.768 588.877C711.281 590.214 709.818 589.633 708.762 589.678C707.726 589.717 706.684 589.807 705.641 589.497C704.646 589.2 703.644 589.562 702.98 590.195C702.059 591.073 701.017 591.196 699.873 591.086C698.275 590.924 696.867 591.17 695.851 592.487C694.165 592.623 692.364 591.977 692.134 590.589C691.741 588.174 690.428 588.639 688.918 589.052C687.882 589.342 686.84 589.187 685.797 589.226C684.646 589.278 684.057 589.652 684.72 590.789C685.411 591.983 685.14 592.991 684.158 593.895C684.152 594.198 684.145 594.508 684.145 594.812C683.928 596.219 685.086 596.872 685.926 597.653C686.812 598.473 687.584 599.319 687.862 600.513C687.977 600.998 688.085 601.656 687.537 601.669C684.754 601.721 685.858 603.083 686.413 604.368C686.616 604.846 686.616 605.44 686.562 605.963C686.454 606.958 686.142 607.552 684.842 606.938C683.624 606.364 682.256 606.086 680.956 605.679C680.584 606.59 681.017 607.113 681.565 607.416C682.791 608.107 683.163 609.308 683.759 610.387C684.47 611.665 683.265 613.105 684.145 614.358C685.154 616.863 684.714 617.58 682.134 617.619C681.342 617.625 680.55 617.619 679.751 617.619C680.076 618.491 681.295 618.846 681.22 619.943C682.716 622.507 684.822 624.702 686.074 627.408C686.413 628.021 686.752 628.629 687.083 629.242C688.051 629.571 688.302 630.559 689.02 631.115C689.852 631.941 690.387 632.826 689.643 633.969C688.925 635.079 687.903 634.143 687.178 634.317C685.777 634.66 683.597 634.285 683.082 635.447C682.181 637.475 680.706 637.113 679.162 637.171C678.336 637.204 677.463 637.01 676.562 637.372C676.995 638.863 678.952 638.631 679.263 639.961C679.426 640.271 679.588 640.581 679.751 640.891C680.651 643.106 680.367 643.512 677.808 643.68C675.472 641.775 672.771 640.439 670.144 638.979C668.614 638.134 667.192 637.1 665.973 635.867C665.12 635.002 664.179 634.343 662.967 634.027C662.317 633.859 661.62 633.103 661.037 633.956C660.509 634.731 660.232 635.635 660.895 636.545C661.39 637.217 662.073 637.514 662.872 637.772C663.969 638.114 665.262 638.095 665.966 639.328C666.237 639.793 666.982 639.98 667.72 639.677C669.115 639.102 669.934 639.858 670.272 641.026C670.692 642.486 671.762 643.338 672.947 644.171C673.725 644.72 674.558 645.295 675.093 646.031C676.467 647.949 678.708 648.943 680.238 650.661H680.733C681.728 651.539 683.508 652.094 682.188 653.915C682.033 653.915 681.87 653.922 681.714 653.922C681.288 654.606 680.469 655.181 681.782 655.949C682.52 656.375 682.432 657.331 681.802 657.97C681.24 658.545 680.726 658.254 680.137 657.815C678.932 656.931 678.932 657.906 678.769 658.694C678.41 660.437 677.625 660.825 675.912 660.179C675.526 660.037 675.289 659.41 674.7 659.843C674.754 660.146 674.788 660.45 674.863 660.741C675.431 662.833 673.129 664.905 674.829 667.023C674.985 667.217 674.687 667.559 674.456 667.811C672.52 669.878 670.807 669.994 668.6 668.186C667.063 666.92 666.115 667.062 665.066 668.819C664.524 669.736 663.637 670.304 662.71 670.071C661.579 669.787 660.421 669.962 659.365 669.652C658.106 669.284 656.583 669.238 655.851 667.869C655.059 667.075 653.664 666.862 653.394 665.558C652.554 664.951 651.674 664.621 650.557 664.576C648.147 664.479 645.831 663.924 643.956 662.329C642.866 661.412 641.572 660.889 640.232 660.431C638.614 660.456 637.91 659.882 638.634 658.293C638.885 657.725 638.648 657.228 638.092 656.911C637.72 656.698 637.3 656.647 636.921 656.802C636.048 657.15 636.725 657.706 636.765 658.171C636.955 660.192 636.461 660.676 634.497 659.901C632.04 658.932 629.657 657.99 626.901 658.552C625.709 658.797 625.039 657.958 624.829 657.015C624.497 655.549 623.502 655.491 622.196 655.245C619.189 654.684 616.271 655.168 613.306 655.265C611.302 655.323 609.535 655.601 607.856 656.75C605.54 658.332 603.394 657.996 601.762 655.872C601.011 654.89 600.124 654.406 598.926 654.393C594.965 654.354 591.038 653.657 587.064 653.896C585.832 653.967 584.66 654.019 583.563 654.638C581.329 655.911 578.966 655.387 576.752 654.703C575.52 654.322 575.128 653.076 575.493 651.791C575.629 651.306 576.177 650.913 575.798 650.215C574.552 650.396 573.496 649.815 572.426 649.266C571.607 648.853 570.761 648.64 569.853 648.911C569.251 649.098 568.966 649.602 568.858 650.138C568.723 650.783 569.393 650.919 569.779 650.977C570.984 651.158 571.952 651.371 571.945 652.895C571.939 654.425 571.079 654.974 569.725 655.491C566.617 656.685 564.207 658.558 563.577 662C563.333 663.33 562.46 664.027 560.916 663.369C560.564 663.214 560.118 663.265 559.718 663.227C557.653 663.072 555.561 663.504 553.496 662.891C552.575 662.62 551.837 662.923 552.528 664.072C553.442 665.603 552.095 666.242 551.153 666.746C549.386 667.695 544.796 666.63 543.124 665.086H542.643C541.79 665.106 541.038 665.028 540.727 664.06C540.003 661.793 537.755 661.038 535.879 661.012C531.465 660.967 527.118 660.224 522.609 660.747C517.762 661.302 512.745 661.27 507.85 660.385C506.767 660.192 506.225 659.998 505.886 661.393C505.521 662.904 504.431 663.033 503.354 661.838C502.549 660.947 501.587 660.947 500.517 660.883C495.893 660.579 491.33 661.528 486.706 661.399C485.392 661.367 484.12 660.792 482.894 660.986C480.524 661.361 478.128 660.85 475.792 661.367C474.208 662.11 472.542 662.671 470.782 662.445C468.385 662.135 465.948 662.536 463.564 661.871C462.386 661.541 461.168 661.929 460.084 662.568C459.164 663.104 458.141 663.524 457.092 663.091C455.745 662.542 454.749 662.768 453.95 663.924C453.192 665.015 452.197 664.718 452.041 663.737C451.709 661.703 450.173 662.11 449.123 662.394C446.144 663.214 443.226 663.323 440.24 662.542C439.57 662.368 438.88 662.549 438.155 662.723C436.598 663.104 434.946 663.517 433.341 662.762C432.806 663.453 432.021 663.207 431.33 663.214C429.069 663.24 426.815 663.227 424.553 663.227C419.259 663.556 413.937 662.665 408.629 664.085C403.301 665.512 397.695 664.408 392.204 664.983C387.228 665.5 382.143 665.028 377.106 665.125C375.617 665.151 374.269 664.466 372.787 664.628C369.72 664.951 369.713 664.931 369.225 662.161C368.007 663.737 366.016 663.491 364.398 663.866C362.198 664.376 359.896 664.486 357.56 663.517C354.439 662.226 351.121 661.496 347.729 663.033C346.781 663.459 345.698 663.382 344.716 662.742C343.403 661.883 341.88 662.374 340.451 662.336C339.239 662.31 339.314 663.459 338.867 664.137C338.203 665.157 337.134 665.196 336.057 665.054C335.069 664.925 334.344 664.318 334.337 663.382C334.331 662.103 333.674 661.367 332.489 661.425C330.194 661.535 328.014 660.831 325.732 660.87C319.964 660.96 314.195 660.902 308.427 660.902C305.076 661.774 301.684 661.425 298.305 661.154C296.308 660.992 294.324 660.121 292.334 660.489C290.059 660.915 288.055 660.773 286.193 659.397C285.8 659.107 285.259 658.907 284.818 659.165C282.638 660.45 280.228 659.837 277.913 659.959C276.619 660.03 275.496 659.837 274.304 659.023C272.991 658.119 270.946 658.009 269.761 659.075C267.906 660.741 266.071 660.637 263.952 660.037C261.508 659.346 258.867 658.991 256.532 659.746C254.115 660.534 252.056 660.243 249.707 659.753C245.706 658.92 241.312 657.493 239.145 662.878C238.698 663.989 237.141 663.95 236.924 662.936C236.62 661.503 235.719 661.49 234.582 661.212C232.639 660.728 230.716 660.857 228.793 661.038C228.13 661.102 227.48 661.386 227.06 660.753C225.496 658.384 223.072 658.448 220.601 658.577C219.673 661.154 219.274 661.218 216.586 660.45C214.88 659.959 212.971 660.159 211.65 658.648C211.447 658.41 210.723 658.577 210.235 658.577C209.024 658.571 207.805 658.493 206.607 658.597C205.164 658.713 204.095 658.242 203.289 657.137C202.416 655.93 204.095 655.549 204.42 654.38C202.51 654.38 200.838 654.451 199.173 654.361C198.015 654.296 196.756 654.813 195.706 653.922C194.873 653.876 194.366 653.502 194.264 652.682C194.02 650.719 196.234 651.5 196.972 650.422C193.986 650.48 191.17 649.97 188.387 649.259C187.886 649.557 187.257 649.66 186.911 650.183C186.106 651.468 185.3 651.449 184.488 650.189C184.156 649.892 183.817 649.589 183.485 649.292C183.167 649.285 182.849 649.272 182.531 649.266C181.502 649.059 180.859 649.77 180.107 650.202C180.107 650.357 180.1 650.512 180.094 650.667C179.687 652.708 178.103 652.133 176.857 651.849C175.889 651.629 175.523 651.946 175.158 652.65C174.691 653.567 175.388 653.935 176.018 654.251C176.566 654.522 177.649 654.561 177.46 655.213C176.817 657.434 178.381 656.808 179.545 656.95C181.211 657.15 181.942 658.132 181.393 659.236C181.021 659.972 180.398 660.431 179.471 660.437C178.645 660.437 177.71 660.521 177.48 659.552C177.216 658.455 176.614 658.351 175.584 658.513C175.104 658.584 174.305 658.326 174.061 657.964C173.316 656.847 172.802 656.789 171.624 657.609C170.764 658.209 169.281 657.945 168.638 656.976C167.981 655.982 168.787 655.446 169.654 655.704C169.647 655.723 169.647 655.736 169.647 655.756C169.654 655.743 169.66 655.73 169.66 655.717L169.654 655.704C169.978 654.257 168.685 654.561 168.381 653.915C167.758 653.87 166.844 654.064 166.776 653.282C166.702 652.508 167.501 652.172 168.266 652.075C168.584 652.036 168.916 652.049 169.241 652.049C170.547 652.03 170.791 651.255 170.832 650.189C170.886 648.995 170.243 648.73 169.186 648.795C168.699 648.82 168.205 648.795 167.893 648.336C166.377 648.491 166.322 646.56 164.968 646.483C164.129 647.742 163.005 648.685 161.556 649.266C160.622 650.222 159.18 650.732 158.34 649.892C157.284 648.846 156.472 648.168 154.82 647.974C153.56 647.832 152.992 646.173 152.511 644.707C150.859 645.882 149.044 645.443 147.291 645.559C146.14 645.63 144.908 645.734 145.449 647.4C146.262 648.194 146.147 649.111 145.239 649.518C143.418 650.338 144.231 651.552 144.528 652.663C144.887 654.025 146.147 653.412 146.986 653.418C148.78 653.424 149.911 654.09 150.331 655.775C151.245 657.073 151.008 658.242 149.85 659.249C148.604 660.334 147.331 661.444 145.449 660.437C144.204 658.552 142.315 658.442 140.223 658.539C138.53 658.61 136.919 659.314 135.199 659.036C134.197 661.935 132.382 663.188 129.193 663.233C127.46 663.259 125.585 663.065 125.185 665.422C125.111 665.881 124.488 666.003 123.98 666.023C120.846 667.269 119.972 667.133 118.117 665.093C115.389 664.886 115.287 664.705 116.668 662.497C116.756 662.361 116.878 662.252 116.932 662.109C117.013 661.883 117.041 661.619 116.749 661.528C116.54 661.457 116.113 661.451 116.086 661.515C115.72 662.549 114.434 663.233 114.915 664.602C115.28 665.622 115.328 666.797 117 666.507C117.657 666.391 118.083 666.739 118.124 667.411C119.234 668.799 118.246 669.523 117.149 670.207C116.824 670.743 116.187 670.853 115.686 671.143C115.612 674.269 113.249 675.263 109.729 673.61C109.417 674.114 109.16 674.669 108.781 675.121C108.131 675.889 107.284 675.967 106.377 675.528C105.524 675.115 104.861 674.52 105.186 673.532C105.775 671.757 104.989 670.478 103.547 669.6C102.105 668.722 100.27 669.232 98.6724 670.827C97.3793 672.125 95.7814 671.453 94.3123 671.582C93.3577 671.66 92.8025 671.15 92.7483 670.207C92.6467 669.064 91.4551 668.954 90.7916 668.347H90.3109C88.6115 670.013 87.0137 671.259 84.0957 670.833C81.3401 670.433 78.3205 670.653 75.7003 672.183C74.9691 672.616 74.0551 672.816 73.1953 672.971C71.6923 673.235 70.3043 674.198 68.6726 673.662C68.07 675.78 65.5989 675.269 64.387 676.529C64.4276 676.574 64.502 676.709 64.6171 676.793C65.6124 677.471 65.6666 678.298 64.9828 679.189C64.5156 679.783 63.8183 680.248 63.0938 679.854C62.0173 679.266 62.5048 678.24 62.6944 677.381C62.7824 676.974 63.5271 676.6 63.0531 676.18C61.2454 674.579 62.0512 672.738 62.5522 671.001C62.8094 670.123 62.4709 668.657 63.7099 668.476C65.2604 668.25 64.6104 670.02 65.3077 670.659C65.3958 670.749 65.5854 670.736 65.8359 670.795C65.9306 669.2 65.6192 667.34 67.7925 666.785C69.37 666.391 70.697 664.977 72.7281 666.287C73.8182 666.985 73.4526 665.687 73.2292 665.086C70.6226 664.718 68.0227 665.306 65.4229 665.086C64.0553 665.028 62.5725 665.396 61.5163 664.156C59.1805 663.039 58.4763 661.457 59.4648 658.868C60.0403 657.363 59.3903 656.86 58.0363 656.731C56.9937 656.634 55.9984 656.672 55.0641 657.389C54.2246 658.029 53.3376 658.745 52.0241 658.836C54.0282 658.894 55.0844 659.856 55.5516 661.554C55.8157 662.529 56.6078 662.852 57.6166 662.762C58.7675 662.884 58.9503 663.756 59.0451 664.596C59.1466 665.429 59.1602 666.294 59.0586 667.127C58.9164 668.373 59.7966 670.091 58.4561 670.775C56.8989 671.569 55.7953 669.865 54.5157 669.193C53.9741 668.909 53.71 668.47 53.71 667.882C53.7438 667.198 53.5475 666.462 54.1162 665.887C54.6917 665.306 54.3532 664.828 53.8318 664.563C52.4168 663.853 51.4013 662.361 49.2889 663.091C47.6505 663.653 46.4182 662.11 46.8718 660.431C47.0276 658.474 48.8015 658.707 50.0946 658.364C50.1284 657.596 49.8712 657.099 49.2212 656.776C46.9667 655.652 46.8042 654.929 48.1786 652.798C49.14 651.306 50.1149 649.879 50.4128 648.013C50.7987 645.618 53.0804 644.32 55.362 644.739C55.9511 644.849 56.628 645.437 57.0004 644.552C57.2916 643.848 56.6551 643.396 56.1474 643.048C55.3011 642.466 54.238 642.111 54.2042 640.884C53.0871 639.735 54.6918 639.16 54.8813 638.302C54.1772 637.888 53.2699 638.373 52.7486 637.798C51.2456 636.132 49.9727 636.842 48.6457 638.017C47.6911 638.857 46.8381 638.721 46.4386 637.494C46.0865 636.403 45.5246 635.57 44.4481 634.995C43.8252 634.66 43.2971 634.104 43.595 633.258C44.1434 631.689 48.7473 629.61 50.3451 630.269C51.5977 630.792 52.8975 631.289 54.0214 632.012C56.1203 633.355 58.2394 633.865 60.6362 632.729C59.8575 632.329 58.9029 632.587 58.1446 632.083C57.3863 631.579 56.4385 631.076 56.7025 630.139C57.1291 628.641 56.1677 627.64 55.6599 626.465C54.6443 625.426 54.2719 623.869 52.7621 623.217C51.1508 622.52 51.1305 621.545 52.2679 620.402C51.2659 619.782 50.2842 619.13 49.2551 618.549C48.6593 618.213 47.9889 617.741 47.3458 618.529C46.8447 619.427 45.7954 620.228 47.0818 621.332C48.0703 622.178 48.2936 623.166 47.0479 624.044C45.7547 624.948 44.4887 624.748 43.6153 623.482C43.3039 623.043 43.1414 622.333 42.4847 622.43C40.0203 622.785 40.616 621.261 40.7582 619.995C41.0561 617.335 43.3986 615.714 44.4277 613.428C44.3465 612.556 44.5225 611.717 44.9153 610.955C45.7277 609.386 45.3485 608.185 43.947 607.106C43.2835 606.596 42.4372 606.06 42.505 605.072C42.5727 604.117 42.1393 603.426 41.4082 602.87C40.5348 602.205 40.3316 601.275 40.5753 600.365C40.9274 599.028 40.4467 598.441 39.1333 597.976C37.8401 597.517 37.6574 596.032 38.7609 595.78C40.7446 595.315 42.2342 594.586 43.1278 592.739C43.3513 592.267 44.5158 592.435 44.8746 591.68C45.3892 590.563 46.3302 590.253 47.576 590.091C49.6951 589.82 50.3654 588.8 49.9456 586.746C49.7629 585.862 50.1488 585.229 50.5821 584.609C51.5841 583.182 53.0059 582.433 54.8948 582.627C53.6152 578.946 53.6152 578.946 51.2794 580.399C51.2659 580.987 51.0154 581.471 50.4399 581.703C48.4968 582.478 46.4589 583.085 44.3804 583.111C42.6404 583.137 41.3743 581.865 40.6905 580.444C40.2166 579.463 40.3046 578.229 41.9972 578.068C43.3648 577.319 44.7189 576.77 46.3438 577.493C47.1494 577.842 47.9416 577.532 48.3411 576.667C46.1339 575.711 45.748 574.736 47.075 573.044C47.5896 572.379 47.9687 571.759 47.8469 570.946C47.5896 569.228 48.4697 567.633 48.3885 565.922C48.3411 564.947 48.7608 564.488 49.8712 565.282C51.1034 566.161 52.1799 565.722 52.1596 564.495C52.1529 563.455 51.2253 563.339 50.4602 563.197C48.9437 562.919 47.7317 562.403 47.2714 560.801C47.0277 559.949 46.3777 559.8 45.5991 560.414C44.685 561.143 43.9741 560.853 43.4596 559.916C41.2591 558.225 40.8326 556.255 42.1596 553.918C42.4575 553.388 42.8029 552.936 42.6065 552.213C41.74 549.01 39.5936 546.472 37.8875 543.709C37.5422 543.147 36.8923 542.676 36.2694 542.34C33.0805 540.641 32.7691 538.485 35.4164 536.05C35.7616 535.727 36.2694 535.43 35.7819 534.94C35.4637 534.623 35.0101 534.339 34.4888 534.468C34.2654 534.526 34.0487 534.688 33.8929 534.856C32.8841 535.979 32.1665 535.682 31.5504 534.481C31.3676 534.126 31.0088 533.919 30.413 534.165C30.5281 537.374 27.2173 537.975 25.4299 539.796C25.1185 540.112 24.3264 540.009 23.9405 539.44C22.065 538.666 22.9181 537.884 23.9405 537.109C24.0962 536.147 23.5478 535.514 22.8707 534.907C22.3426 534.436 21.8281 533.965 21.4692 533.332C19.9527 530.633 19.9391 530.639 17.1158 531.059C15.3284 531.117 13.2838 530.575 12.4714 532.886C12.4578 532.919 12.3223 532.919 12.2411 532.931C11.5844 534.055 10.9277 534.061 10.2778 532.925C9.43146 532.822 8.72056 533.209 7.99612 533.532C7.07535 533.939 6.04628 534.197 5.32184 533.39C4.59066 532.57 4.55668 531.349 5.28112 530.62C6.62163 529.277 5.84307 528.792 4.6447 528.095C3.4937 527.423 2.49854 526.196 3.12141 525.028C3.89323 523.555 3.39902 522.219 3.4464 520.824C3.45313 519.584 3.45313 518.338 3.45313 517.098C3.4193 516.795 3.50725 516.33 3.33802 516.22C1.5506 515.064 1.87559 513.553 2.47818 511.978V511.513C2.61358 510.454 1.31371 510.757 1.00901 510.118C-0.0471566 509.511 -0.378878 508.768 0.521606 507.793C2.02461 506.779 3.45313 505.63 5.3895 505.456Z" fill="black"/>
</svg>
